<?xml version="1.0" standalone="no"?>
<!DOCTYPE svg PUBLIC "-//W3C//DTD SVG 20010904//EN"
 "http://www.w3.org/TR/2001/REC-SVG-20010904/DTD/svg10.dtd">
<svg version="1.0" xmlns="http://www.w3.org/2000/svg"
 width="712.000000pt" height="240.000000pt" viewBox="0 0 712.000000 240.000000"
 preserveAspectRatio="xMidYMid meet">

<g transform="translate(0.000000,240.000000) scale(0.100000,-0.100000)"
fill="#FF0000" stroke="none">
<path d="M0 1200 l0 -1200 3560 0 3560 0 0 1200 0 1200 -3560 0 -3560 0 0
-1200z m2850 769 c428 -108 673 -541 559 -989 -68 -268 -259 -463 -534 -546
-80 -24 -107 -27 -240 -28 -182 0 -247 13 -394 85 -87 43 -116 63 -186 132
-168 167 -246 376 -232 622 24 404 288 689 692 745 83 12 245 2 335 -21z
m-1634 6 c43 -8 101 -22 129 -31 66 -21 245 -105 245 -116 0 -4 -13 -29 -29
-55 -15 -27 -47 -80 -70 -120 l-41 -72 -93 44 c-130 61 -201 78 -332 79 -156
1 -230 -26 -283 -104 -19 -29 -23 -44 -19 -85 8 -89 77 -124 337 -170 228 -40
339 -81 426 -157 177 -156 164 -464 -28 -632 -201 -176 -605 -204 -933 -65
-77 33 -185 99 -185 113 0 5 34 62 76 128 l76 119 32 -21 c65 -44 194 -101
275 -121 67 -17 106 -20 200 -18 105 4 122 7 176 34 74 37 105 79 105 144 0
103 -69 137 -389 192 -216 37 -313 79 -399 174 -136 148 -134 392 4 562 65 79
191 148 329 178 83 18 296 18 391 0z m2692 -57 c11 -29 108 -302 217 -605 109
-304 201 -553 205 -553 3 0 41 98 84 218 43 119 141 391 218 605 l140 387 160
0 c124 0 159 -3 156 -12 -3 -7 -133 -354 -289 -770 l-284 -758 -189 3 -188 2
-284 755 c-156 415 -284 761 -284 768 0 9 38 12 159 12 l160 0 19 -52z m2257
24 c255 -69 447 -243 520 -473 112 -356 -2 -726 -281 -909 -40 -26 -104 -59
-144 -74 -133 -49 -209 -56 -606 -56 l-364 0 0 763 c0 420 3 767 8 771 4 4
183 6 397 4 360 -4 396 -6 470 -26z"/>
<path d="M2500 1684 c-260 -69 -405 -324 -346 -606 39 -183 159 -310 341 -363
80 -24 237 -17 317 14 122 47 217 143 269 272 31 76 39 261 14 345 -64 223
-245 356 -479 353 -33 0 -86 -7 -116 -15z"/>
<path d="M5600 1200 l0 -480 208 0 c152 0 223 4 265 15 216 56 327 214 327
465 0 258 -118 417 -345 465 -48 10 -131 15 -262 15 l-193 0 0 -480z"/>
</g>
</svg>
